<svg xmlns="http://www.w3.org/2000/svg" viewBox="0 0 64 64" role="img" aria-label="World Cup Lineups">
  <rect width="64" height="64" rx="14" fill="#205a3c" />
  <path
    d="M22 15h20v6h8v5c0 7-4.6 12.2-11.2 13.3A10.8 10.8 0 0 1 35 42v5h7v5H22v-5h7v-5a10.8 10.8 0 0 1-3.8-2.7C18.6 38.2 14 33 14 26v-5h8v-6Zm5 5v12c0 4.4 3.6 8 8 8s8-3.6 8-8V20H27Zm-8 6c0 3.5 1.6 6.2 4 7.7V26h-4Zm28 0v7.7c2.4-1.5 4-4.2 4-7.7h-4Z"
    fill="#ffffff"
  />
  <path d="M28 20h14v4H28v-4Z" fill="#f6e3a3" opacity="0.95" />
</svg>
